<svg overflow="hidden" version="1.1" viewBox="0 0 514.19 612.54" xml:space="preserve" xmlns="http://www.w3.org/2000/svg"><path d="m484.41 114.83c-79.079-6.38-152.77-42.539-206.15-101.15-10.075-11.67-27.715-12.974-39.401-2.9137-1.0435 0.898-2.0188 1.872-2.9181 2.9137-53.374 58.608-127.08 94.737-206.16 101.05-14.708 1.425-25.892 13.827-25.777 28.582v72.025c0 156.65 99.467 299.94 237.52 388.6 9.4732 6.127 21.667 6.127 31.141 0 138.06-88.633 237.52-231.85 237.52-388.5v-72.018c0.15121-14.771-11.05-27.199-25.777-28.597zm10.881 100.61c0 142.69-86.232 283.26-230.68 376.02-4.5674 2.974-10.464 2.974-15.03 0-144.44-92.753-230.68-233.35-230.68-376.08v-72.024c-0.13218-7.012 5.1031-12.97 12.081-13.752 82.865-6.552 160.11-44.413 215.99-105.87 4.5464-5.5946 12.774-6.4497 18.376-1.9099 0.70199 0.5688 1.3429 1.2088 1.9127 1.9099 55.892 61.448 133.13 99.33 215.99 105.94 6.9848 0.779 12.224 6.743 12.089 13.759z" fill="#16a34a" stroke-width="1.0007"/><g transform="translate(-1099.5 -797.05)" fill="#16a34a"><g fill="#16a34a"><g fill="#16a34a"><path transform="translate(1148,864)" d="m211.86 93.125c-72.172 0-130.37 58.203-130.37 130.38 0 22.816 6.0531 44.234 16.297 62.859 9.7778-10.243 20.488-20.487 32.128-31.662 29.335-27.472 63.791-55.41 92.66-75.897 1.862-1.397 3.725-2.328 6.053-2.328 5.122 0 9.312 4.19 9.312 9.312 0 3.26-1.397 5.588-3.725 7.45-41.44 29.8-96.384 75.897-133.63 117.8 0 0-5.1219 5.588-7.45 8.382-20.953 24.678-34.922 47.028-34.922 62.859h27.938c0-10.244 16.296-32.594 40.975-59.134 22.815 19.556 52.15 31.197 84.743 31.197 23.282 0 45.632-6.054 64.722-17.229 99.644-55.409 112.22-157.38 112.22-271.92 0 0-108.49 29.8-176.94 27.938z" fill="#16a34a"/></g></g></g></svg>
